<?xml version="1.0" encoding="UTF-8"?>
<svg width="69px" height="92px" viewBox="0 0 69 92" version="1.1" xmlns="http://www.w3.org/2000/svg" xmlns:xlink="http://www.w3.org/1999/xlink">
    <!-- Generator: Sketch 52.6 (67491) - http://www.bohemiancoding.com/sketch -->
    <title>Etehadie</title>
    <desc>Created with Sketch.</desc>
    <g id="Page-1" stroke="none" stroke-width="1" fill="none" fill-rule="evenodd">
        <g id="Home-Page---Desktop" transform="translate(-538.000000, -4365.000000)">
            <g id="Desktop-1920-/-Footer" transform="translate(0.000000, 4019.000000)">
                <g id="Etehadie" transform="translate(538.000000, 346.000000)">
                    <g id="Group-8" transform="translate(6.000000, 0.000000)">
                        <polygon id="Fill-1" fill="#FFFFFF" points="0.838067647 48.6314779 0.838486765 16.8556544 28.3569132 0.968161765 55.8753397 16.8556544 55.8749206 48.6314779 28.3564941 64.5189706"></polygon>
                        <path d="M28.3568294,4.19117647e-05 L0.000167647059,16.3716154 L0.000167647059,49.1151816 L28.3564103,65.4871743 L56.7134912,49.1151816 L56.7134912,16.3716154 L28.3568294,4.19117647e-05 Z M1.67621912,48.1478581 L1.67621912,17.3397772 L28.3568294,1.93594632 L55.0374397,17.3397772 L55.0370206,48.1478581 L28.3564103,63.5512699 L1.67621912,48.1478581 Z" id="Fill-2" fill="#00BCF2"></path>
                        <polygon id="Fill-3" fill="#00BCF2" points="28.3569971 32.9129316 52.6867765 19.1164169 28.3574162 5.06968897 4.02763676 19.1164169"></polygon>
                        <polygon id="Fill-4" fill="#929497" points="52.6866926 46.9267588 52.6866926 19.1166265 28.3569132 32.9127221 28.3569132 60.8288912"></polygon>
                        <polygon id="Fill-5" fill="#6B6C6E" points="4.31666029 46.9365662 4.08698382 19.0824265 28.3568294 32.9128897 28.3568294 60.8286397"></polygon>
                        <path d="M29.4093176,40.8078088 L43.2112809,32.7959559 L43.2112809,24.8423603 L28.5513838,16.0706471 L13.9702809,25.3100956 L13.9702809,41.2755441 L27.5966338,49.5216838 C27.5966338,49.5216838 28.3564941,50.0480956 29.3506412,49.5216838 C30.3447882,48.9952721 42.392325,41.9188897 42.392325,41.9188897 C42.392325,41.9188897 43.9711412,40.5739412 42.6261926,38.995125 C41.2812441,37.4158897 39.9945529,38.5273897 39.9945529,38.5273897 L28.2986559,45.1356176 L17.7716779,38.995125 L17.7716779,27.0649412 L28.5513838,21.1000588 L38.8830529,27.0649412 L38.8830529,30.6324706 L27.1288985,37.2989559 C27.1288985,37.2989559 25.4909868,38.0885735 26.6607441,40.1062059 C27.6322588,41.7818382 29.4093176,40.8078088 29.4093176,40.8078088" id="Fill-6" fill="#FFFFFF"></path>
                    </g>
                    <path d="M63.2049982,78.7392327 L59.0304594,78.7392327 C58.9457449,78.7392327 58.8515336,78.7315706 58.7479337,78.7162464 C58.6443337,78.7008144 58.5418129,78.6791231 58.4406951,78.6509569 C58.3393614,78.6226827 58.2422364,78.5884732 58.1493202,78.5484361 C58.0561881,78.508399 57.9779486,78.4637215 57.9143857,78.4142957 C57.7825116,78.5272844 57.6294858,78.6085457 57.4553084,78.6579715 C57.281023,78.7073973 57.0785714,78.7344844 56.8477378,78.7392327 L56.2968234,78.7392327 L55.9720375,78.7392111 C55.9625409,79.061666 55.9053451,79.3337238 55.8006659,79.5550608 C55.6958789,79.7763978 55.5399394,79.9694606 55.3327395,80.1342493 C55.2243912,80.2190718 55.1066541,80.2926709 54.9795283,80.3550467 C54.8524026,80.4173146 54.7098447,80.4697621 54.5521785,80.5121733 C54.3942965,80.5544766 54.2183924,80.5857725 54.0241425,80.605737 C53.8298926,80.6258095 53.6103901,80.6357378 53.3654194,80.6357378 L53.3654194,79.7563253 C53.5537339,79.7563253 53.7215443,79.7498503 53.8687425,79.7369003 C54.0159408,79.7239503 54.1465199,79.7050649 54.2608036,79.6804599 C54.3749794,79.6556391 54.4749102,79.6239116 54.5609198,79.5850616 C54.6469293,79.5462116 54.7217155,79.4996995 54.7851705,79.4455254 C54.8841301,79.3654513 54.9589163,79.2725351 55.0095292,79.1665609 C55.0601421,79.0605868 55.0901429,78.9180289 55.0996396,78.7392111 L54.5556319,78.7392111 C54.4380027,78.7392111 54.3177836,78.7297144 54.1955141,78.7109369 C54.0730287,78.6921595 53.9552917,78.6597845 53.8421951,78.613812 C53.7292063,78.5678395 53.6226926,78.5083774 53.5226539,78.4355337 C53.4225073,78.3624742 53.3354186,78.2724717 53.2612799,78.1653105 C53.1871411,78.0581493 53.1282187,77.931671 53.0847283,77.7855519 C53.041022,77.6396486 53.0193308,77.4724858 53.0193308,77.2840633 C53.0193308,77.1216488 53.0334679,76.9774722 53.061742,76.8514256 C53.0899083,76.7254869 53.1258445,76.6143328 53.1694428,76.5176395 C53.2129332,76.421162 53.2618194,76.3369871 53.3159936,76.2651146 C53.3701677,76.19335 53.4219677,76.1303267 53.4715014,76.0761526 C53.6126564,75.9349976 53.7728047,75.8260018 53.9517304,75.749489 C54.1306562,75.6729761 54.323719,75.6347736 54.5309189,75.6347736 C54.7875447,75.6347736 55.007155,75.6789115 55.189642,75.7671873 C55.372129,75.8554631 55.5217015,75.9773009 55.6382514,76.1327009 C55.7548014,76.2881008 55.8400555,76.4723145 55.8942297,76.6854498 C55.9484038,76.8985852 55.9754909,77.1298505 55.9754909,77.3794616 L55.9754909,77.8597985 L56.2968234,77.8597985 L56.8231328,77.8597122 C56.9666619,77.8597122 57.0808377,77.8467622 57.1656601,77.8208622 C57.2504826,77.7950701 57.3144772,77.7614002 57.3581834,77.7202839 C57.4016738,77.6791677 57.4305955,77.6343823 57.4446246,77.5860356 C57.4587617,77.5377969 57.4658842,77.4902057 57.4658842,77.4430461 L57.4658842,76.2986982 L58.3417355,76.2986982 L58.3417355,77.414664 C58.3417355,77.4571832 58.3499372,77.4984073 58.3664484,77.5383365 C58.3829597,77.5784815 58.4041113,77.6143098 58.4300113,77.6461452 C58.4560192,77.6778727 58.4853725,77.7037727 58.518395,77.7238452 C58.5513096,77.7438097 58.5855192,77.7562202 58.6208079,77.7608606 L58.6985079,77.6337348 C58.7926112,77.4783348 58.8921103,77.3211003 58.9968973,77.1622471 C59.1016844,77.0032859 59.2116514,76.8509076 59.3271222,76.7047885 C59.4424851,76.5588852 59.5649704,76.4210757 59.6944704,76.2915757 C59.8238624,76.1621837 59.961672,76.0503821 60.1076832,75.9561709 C60.2536943,75.8619597 60.4077993,75.7871734 60.5703217,75.7319201 C60.7327362,75.6765589 60.9070216,75.6488243 61.0930698,75.6488243 C61.276636,75.6488243 61.4580439,75.6741847 61.6369696,75.7247976 C61.8157875,75.7754105 61.9760437,75.8607726 62.1171986,75.9807759 C62.2585694,76.100995 62.3726373,76.2610353 62.4598339,76.4612207 C62.5469226,76.6612981 62.5905209,76.9109092 62.5905209,77.2099462 C62.5905209,77.3394462 62.5792976,77.4565357 62.5569588,77.5613227 C62.5345122,77.6662177 62.5045114,77.7656089 62.4668485,77.8597122 L63.2049982,77.8597122 L64.0209881,77.8598093 C63.9620657,77.777361 63.9160932,77.6960998 63.8831786,77.6161336 C63.850264,77.5360595 63.8254432,77.4600861 63.8090399,77.3882137 C63.7924207,77.3164491 63.7826003,77.2482458 63.7789312,77.1833879 C63.7754778,77.118638 63.7737512,77.0615501 63.7737512,77.0121242 C63.7737512,76.8026581 63.8136803,76.6084082 63.8937544,76.4293745 C63.9738286,76.2504487 64.0827164,76.0950488 64.2204181,75.9631747 C64.3582276,75.8314085 64.5182679,75.7278085 64.700755,75.6523748 C64.883242,75.577049 65.0769523,75.5393861 65.2817781,75.5393861 C65.3995151,75.5393861 65.5078634,75.5493144 65.606715,75.5693869 C65.7055666,75.5894594 65.8062528,75.6201077 65.9086657,75.6612239 C66.0110786,75.7024481 66.120614,75.7554352 66.2371639,75.8200772 C66.3537139,75.8849351 66.4861276,75.9609084 66.634405,76.0479971 L66.193026,76.800176 C66.1317294,76.7602468 66.0634182,76.7178356 65.9880924,76.6730502 C65.9127666,76.6283727 65.834527,76.5871486 65.7532658,76.5494857 C65.6720046,76.5118228 65.5907434,76.480527 65.5095901,76.455922 C65.4284367,76.4311011 65.3524634,76.4187986 65.2817781,76.4187986 C65.2040781,76.4187986 65.1245435,76.4317486 65.0433902,76.4575407 C64.962129,76.4836565 64.8885299,76.5212115 64.8225928,76.5706373 C64.7566558,76.6200631 64.7025895,76.6820073 64.6601783,76.7560381 C64.6177671,76.8302847 64.5966154,76.9156468 64.5966154,77.0121242 C64.5966154,77.0403984 64.6007162,77.073313 64.6090258,77.1109759 C64.6172275,77.1487467 64.6319041,77.1904025 64.6531637,77.236375 C64.6743154,77.2823475 64.7043162,77.3299387 64.7431662,77.3793645 C64.7820162,77.4287903 64.8319816,77.4795111 64.8932782,77.5313111 L64.889717,77.5313111 C65.0309798,77.646674 65.2211289,77.7303094 65.4601642,77.7821094 C65.6990916,77.8338014 65.9787036,77.8598093 66.2988922,77.8598093 L66.6875,77.8598093 L66.6875,78.7392219 L66.2000406,78.7392219 L63.2049982,78.7392219 Z M44.9987623,78.7391895 L44.5255371,78.7391895 C44.2452776,78.7368154 43.9939398,78.675087 43.7715236,78.5537888 C43.5489995,78.4325984 43.3753617,78.250651 43.2506101,78.0081623 C43.0692022,78.0976252 42.8737652,78.1864406 42.6642991,78.2748243 C42.454725,78.3631001 42.2356542,78.4414476 42.0073027,78.5095429 C41.7789511,78.5779621 41.5446641,78.6332154 41.3045496,78.6756266 C41.0644351,78.7180379 40.8242127,78.7391895 40.5840982,78.7391895 L39.750561,78.7391895 C39.743806,78.7392219 39.7370757,78.7392111 39.7303703,78.7391895 L39.5315874,78.7391895 L39.5315874,78.7351058 C39.3638732,78.7285138 39.2143404,78.7139988 39.0829888,78.6915227 C38.8970484,78.6597953 38.7404614,78.6126357 38.6133356,78.5502599 C38.4861019,78.4878841 38.3843366,78.4084574 38.3078237,78.3118721 C38.2313108,78.2153946 38.1730358,78.102298 38.1329987,77.9726901 C38.0929617,77.8432981 38.0665221,77.6967473 38.0534642,77.5330378 C38.0405142,77.3695441 38.0341471,77.1887838 38.0341471,76.9909726 L38.0341471,73.6463127 L38.9135597,73.6463127 L38.9135597,76.9909726 C38.9135597,77.179395 38.9200347,77.3299387 38.9329847,77.4430353 C38.9458267,77.556024 38.9800363,77.6438682 39.0353975,77.7061361 C39.0906509,77.7685119 39.1742862,77.8098439 39.2860879,77.8297006 C39.3942234,77.8491149 39.54264,77.8591403 39.7312401,77.8597769 L40.5840982,77.8597769 C40.814716,77.8597769 41.0608739,77.8362511 41.3222479,77.7891995 C41.5835141,77.7420399 41.8413269,77.6814987 42.0956864,77.607252 C42.3499379,77.5331133 42.591887,77.4501254 42.8214257,77.3582884 C43.0509643,77.2664514 43.2506101,77.1758014 43.4201471,77.0863385 C43.314173,77.053316 43.1975151,77.0173798 43.0704972,76.9786377 C42.9432635,76.9397877 42.8137636,76.9008298 42.6818895,76.8620878 C42.5501233,76.8232378 42.4194362,76.7855749 42.2898284,76.7489911 C42.1604363,76.7125153 42.0391381,76.6801403 41.9261494,76.6519741 C41.8130527,76.6236999 41.7118269,76.6012533 41.622472,76.58485 C41.5329012,76.5683387 41.4622158,76.5600291 41.4105237,76.5600291 C41.3563496,76.5600291 41.3086504,76.566612 41.2675342,76.579562 C41.2262021,76.592512 41.1891867,76.6136637 41.1561642,76.6431249 C41.1232497,76.6725862 41.0927093,76.7107887 41.0644351,76.7578403 C41.036053,76.8049999 41.0066997,76.8614403 40.9761593,76.9273773 L40.1672163,76.6837016 C40.2118938,76.5424387 40.2667154,76.4099171 40.3315733,76.2863526 C40.3962154,76.1626801 40.4751024,76.0549793 40.5681266,75.9632502 C40.6611507,75.8713052 40.7689594,75.7988932 40.8912289,75.746014 C41.0137143,75.693027 41.1537901,75.6665874 41.3115642,75.6665874 C41.3727529,75.6665874 41.4599495,75.6795374 41.5729382,75.7053295 C41.6860349,75.7312295 41.8142398,75.765439 41.9578768,75.8077423 C42.1015139,75.8501536 42.2551871,75.8983923 42.4188967,75.9525665 C42.5823903,76.0067406 42.7467474,76.0632889 42.9115361,76.1221035 C43.0762168,76.180918 43.236473,76.2386534 43.391765,76.2952017 C43.5472729,76.3516421 43.6873487,76.4029025 43.8121003,76.448875 C43.9368519,76.4947396 44.0417469,76.53305 44.1264614,76.5635904 C44.211176,76.5941308 44.2653501,76.6130162 44.2889838,76.6201387 L44.3913967,77.3335755 C44.3796338,77.3405901 44.341863,77.3659505 44.2783001,77.4094409 C44.2147372,77.4530392 44.1287277,77.50894 44.0204873,77.5772512 C44.0440131,77.6478287 44.0804889,77.7026503 44.1300227,77.7413924 C44.1794485,77.7803503 44.2300614,77.8085166 44.2818613,77.8262149 C44.3336613,77.8439132 44.3825476,77.8539495 44.4284121,77.8563236 C44.4743846,77.8585899 44.5066517,77.8597769 44.5255371,77.8597769 L45.1718497,77.8597769 L46.5457471,77.8598093 C46.5740212,77.8598093 46.6145979,77.8557085 46.6675849,77.8473989 C46.720572,77.8391972 46.7734511,77.8173981 46.8264382,77.7821094 C46.8795332,77.7468206 46.9259373,77.693294 46.9659744,77.6214215 C47.0060115,77.5496569 47.026084,77.451237 47.026084,77.3264854 C47.026084,77.2746854 47.0218752,77.2116621 47.0136735,77.1375234 C47.0054719,77.0633846 46.9942486,76.9838501 46.9801115,76.8991355 C46.9659744,76.8143131 46.9501107,76.7277639 46.9325202,76.6394881 C46.9148219,76.5513203 46.8977711,76.4676849 46.8812599,76.3887978 C46.8647486,76.3099108 46.8482374,76.2380383 46.8317261,76.1733962 C46.8153228,76.1085384 46.8023728,76.058573 46.7929841,76.0231763 L47.6228629,75.772486 C47.6276112,75.7889972 47.6376475,75.8278472 47.6529716,75.8890359 C47.6681879,75.9502247 47.6852387,76.0250109 47.7041241,76.1132867 C47.7230095,76.2015625 47.7424345,76.2999824 47.7623991,76.4081149 C47.7824716,76.5164632 47.801357,76.6253511 47.8189474,76.7348864 C47.8366457,76.8443139 47.8507828,76.9509355 47.8612507,77.0545355 C47.8719345,77.1582434 47.8772224,77.2487854 47.8772224,77.3264854 C47.8772224,77.568974 47.8371853,77.7791956 47.7571112,77.9569343 C47.677037,78.134673 47.5723579,78.2813317 47.44275,78.3965866 C47.3132501,78.5120574 47.1677785,78.5978511 47.0065511,78.6543994 C46.8453236,78.7109477 46.6834487,78.7392219 46.5209262,78.7392219 L44.9987623,78.7392219 Z M30.5980108,78.7392003 L30.5644174,78.7392003 C30.3997364,78.7357715 30.2408593,78.7187132 30.0877065,78.6880047 C29.9181695,78.653903 29.7615825,78.6019951 29.6179454,78.5326047 C29.4743084,78.4631064 29.3466431,78.374291 29.2348414,78.2659427 C29.1229319,78.1577024 29.0317423,78.0293895 28.961057,77.8810041 C28.9045086,77.9680929 28.8320966,78.0451453 28.7438208,78.1122695 C28.655545,78.1793936 28.5596071,78.2354023 28.4560072,78.2800798 C28.3524072,78.3248652 28.245246,78.3583194 28.1345235,78.3806581 C28.023909,78.4031048 27.9179349,78.4143281 27.8167091,78.4143281 C27.6283946,78.4143281 27.4500084,78.3813056 27.2816585,78.3153686 C27.1133085,78.2495394 26.9655707,78.1558678 26.8384449,78.0345695 C26.7113191,77.9132712 26.6106329,77.7656413 26.5364942,77.5913559 C26.4622475,77.4171785 26.4251242,77.2204465 26.4251242,77.0014837 C26.4251242,76.74734 26.4734709,76.5235209 26.5699483,76.3304581 C26.6665337,76.1373953 26.7948466,75.9685057 26.9549948,75.8236816 C27.1150352,75.6788575 27.2993568,75.555293 27.5077438,75.4527722 C27.7160229,75.3503593 27.9320719,75.2615439 28.155891,75.1862181 L28.0709606,74.8471441 L28.9327828,74.6457717 L29.5756421,77.1463078 C29.6131971,77.2994415 29.6744938,77.4223585 29.7592083,77.5154905 C29.8440308,77.6084068 29.9364074,77.6802792 30.0364461,77.7308921 C30.1364848,77.7816129 30.2388977,77.8156067 30.3437927,77.833305 C30.4485797,77.8508954 30.5397692,77.8597446 30.6174692,77.8597446 L30.7163208,77.8597446 L32.1114022,77.8597877 C32.1395684,77.8597877 32.1801451,77.8556869 32.2331322,77.8474852 C32.2862271,77.8391757 32.3391063,77.8173765 32.3920933,77.7820878 C32.4450804,77.746799 32.4915925,77.6932724 32.5316295,77.6213999 C32.5716666,77.5496354 32.5917391,77.4513233 32.5917391,77.3264638 C32.5917391,77.2746638 32.5875304,77.2116405 32.5792208,77.1375018 C32.5710191,77.0633631 32.5599037,76.9839364 32.5457666,76.8992219 C32.5316295,76.8142915 32.5157658,76.7278503 32.4980675,76.6394666 C32.4803691,76.5512987 32.4633183,76.4676633 32.446915,76.3887762 C32.4304037,76.3099971 32.4137846,76.2381246 32.3973813,76.1733747 C32.3809779,76.1085168 32.36792,76.0585514 32.3586392,76.0231547 L33.188518,75.7724644 C33.1932664,75.7889756 33.2033026,75.8278256 33.2185189,75.8890144 C33.233843,75.950311 33.2508938,76.0249893 33.2697792,76.1132651 C33.2886647,76.2016488 33.3079817,76.2999609 33.3280542,76.4082012 C33.3480188,76.5165495 33.3669042,76.6253295 33.3844946,76.7348649 C33.4021929,76.8444002 33.41633,76.9509139 33.4269059,77.0545139 C33.4375896,77.1582218 33.4427696,77.2487638 33.4427696,77.3264638 C33.4427696,77.5690604 33.4027325,77.779174 33.3227663,77.9569127 C33.2426922,78.1347593 33.1379051,78.2813101 33.0084052,78.396565 C32.8789052,78.5120358 32.7334336,78.5979374 32.5722062,78.6543778 C32.4109788,78.7110341 32.2491038,78.7392003 32.0865814,78.7392003 L30.7163208,78.7392003 L30.6174692,78.7392651 C30.6109742,78.7392651 30.604488,78.7392435 30.5980108,78.7392003 Z M19.7749457,78.7392327 L19.4288571,78.7392327 C19.1863685,78.7392327 18.9754994,78.7126852 18.7965736,78.659806 C18.6176478,78.6067111 18.4633271,78.5202699 18.333935,78.4000507 C18.2139318,78.5108811 18.0731006,78.5949482 17.9118731,78.6526836 C17.7506457,78.710311 17.5862887,78.7392327 17.4192337,78.7392327 C17.1978967,78.7392327 17.0041864,78.7121456 16.8382106,78.6579715 C16.6722349,78.6037973 16.524497,78.5166007 16.3949971,78.3965974 C16.2726196,78.5049457 16.1353497,78.5884732 15.983511,78.6472877 C15.8316723,78.7062102 15.677999,78.7367506 15.5225991,78.7392327 C15.30137,78.7414989 15.1064726,78.7133327 14.9381226,78.6544102 C14.7697727,78.5955957 14.6243011,78.5143344 14.5019236,78.4107345 C14.2265204,78.6296973 13.8567981,78.7392327 13.3929724,78.7392327 L12.9373484,78.7392327 L12.5701621,78.7392111 C12.5606655,79.061666 12.5034696,79.3337238 12.3987905,79.5550608 C12.2940035,79.7763978 12.138064,79.9694606 11.930864,80.1342493 C11.8225158,80.2190718 11.7047787,80.2926709 11.5776529,80.3550467 C11.4505271,80.4173146 11.3079693,80.4697621 11.1503031,80.5121733 C10.9924211,80.5544766 10.816517,80.5857725 10.6222671,80.605737 C10.4280171,80.6258095 10.2085147,80.6357378 9.96354399,80.6357378 L9.96354399,79.7563253 C10.1518585,79.7563253 10.3196688,79.7498503 10.4668671,79.7369003 C10.6140654,79.7239503 10.7446445,79.7050649 10.8589282,79.6804599 C10.973104,79.6556391 11.0730348,79.6239116 11.1590443,79.5850616 C11.2450539,79.5462116 11.3198401,79.4996995 11.3832951,79.4455254 C11.4822546,79.3654513 11.5570409,79.2725351 11.6076538,79.1665609 C11.6582666,79.0605868 11.6882675,78.9180289 11.6977641,78.7392111 L11.1537564,78.7392111 C11.0361273,78.7392111 10.9159082,78.7297144 10.7936387,78.7109369 C10.6711533,78.6921595 10.5534163,78.6597845 10.4403196,78.613812 C10.3273309,78.5678395 10.2208172,78.5083774 10.1207785,78.4355337 C10.0206319,78.3624742 9.93354317,78.2724717 9.85940445,78.1653105 C9.78526573,78.0581493 9.72634325,77.931671 9.68285285,77.7855519 C9.63914662,77.6396486 9.61745538,77.4724858 9.61745538,77.2840633 C9.61745538,77.1216488 9.63159245,76.9774722 9.65986661,76.8514256 C9.68803285,76.7254869 9.72396908,76.6143328 9.7675674,76.5176395 C9.8110578,76.421162 9.85994403,76.3369871 9.91411817,76.2651146 C9.96829232,76.19335 10.0200923,76.1303267 10.069626,76.0761526 C10.210781,75.9349976 10.3709292,75.8260018 10.549855,75.749489 C10.7287808,75.6729761 10.9218436,75.6347736 11.1290435,75.6347736 C11.3856693,75.6347736 11.6052796,75.6789115 11.7877666,75.7671873 C11.9702536,75.8554631 12.119826,75.9773009 12.236376,76.1327009 C12.352926,76.2881008 12.4381801,76.4723145 12.4923542,76.6854498 C12.5465284,76.8985852 12.5736155,77.1298505 12.5736155,77.3794616 L12.5736155,77.8597985 L13.1739556,77.8597985 L13.3929724,77.8598201 C13.5318611,77.8598201 13.6442023,77.8479493 13.7302119,77.8244235 C13.8162214,77.8010056 13.8832376,77.7661485 13.9314764,77.7202839 C13.979823,77.6744194 14.0120901,77.6184106 14.0287093,77.5524736 C14.0451126,77.4865365 14.0534222,77.4112107 14.0534222,77.3264962 L14.0534222,76.2986982 L14.9328347,76.2986982 L14.9328347,77.3087978 C14.9328347,77.4995944 14.9786993,77.6384831 15.0705363,77.7255718 C15.1624813,77.8126606 15.3083846,77.8574459 15.5085699,77.8598201 L15.5049007,77.8598201 C15.5401895,77.8574459 15.5832482,77.8504314 15.633969,77.8385605 C15.684474,77.8267976 15.7338998,77.8027322 15.7822465,77.7661485 C15.8304852,77.7296727 15.8717094,77.6766856 15.905811,77.6072952 C15.9400206,77.5377969 15.9570714,77.4442332 15.9570714,77.3264962 L15.9570714,76.2986982 L16.8329227,76.2986982 L16.8329227,77.3087978 C16.8329227,77.5018607 16.8788952,77.6420444 16.9706243,77.7291331 C17.0624614,77.8162218 17.2120338,77.8598201 17.4192337,77.8598201 C17.4756741,77.8598201 17.5316829,77.850863 17.5869362,77.8332726 C17.6422974,77.8155743 17.6923707,77.786221 17.7370482,77.7449968 C17.7818336,77.7037727 17.8183094,77.650246 17.8465836,77.584309 C17.8747498,77.5183719 17.8912611,77.4371107 17.8960094,77.3406332 L17.8960094,77.3440866 L17.8960094,76.2986982 L18.775422,76.2986982 L18.775422,77.3440866 C18.7801703,77.5254944 18.8355315,77.656721 18.9413977,77.7379822 C19.0474798,77.8192435 19.2097864,77.8598201 19.4288571,77.8598201 L19.6124125,77.8598201 L21.6785842,77.8598093 C21.7161392,77.8598093 21.7680471,77.8579747 21.8339841,77.8545214 C21.8998133,77.8509602 21.9646711,77.8415714 22.028234,77.8262473 C22.0917969,77.8109231 22.1465107,77.7885844 22.1923752,77.7591231 C22.2383477,77.7297698 22.2613339,77.6890852 22.2613339,77.6372852 C22.2613339,77.5360595 22.2229156,77.4135741 22.1465107,77.2699371 C22.0698899,77.1264079 21.9716857,76.9732743 21.8515745,76.8108597 C21.7315712,76.6483373 21.5967834,76.4841961 21.4472109,76.3181124 C21.2976385,76.1521367 21.1493611,75.9955496 21.0022707,75.8484593 C20.8550724,75.7013689 20.7166154,75.5712215 20.5872234,75.4581249 C20.4577234,75.3451362 20.3541235,75.2604216 20.2764235,75.2037654 L20.3471089,74.4057219 L23.419711,73 L23.7411946,73.7698772 L21.1558361,74.9106638 C21.2452989,74.9978605 21.3458772,75.0967121 21.4578947,75.2073266 C21.5696963,75.3180491 21.6844117,75.4352465 21.8021487,75.5587032 C21.9198857,75.6823756 22.0370832,75.8106885 22.1536332,75.9437497 C22.2701831,76.0768109 22.3797185,76.2098721 22.4820234,76.3428253 C22.5844363,76.4758865 22.6757338,76.6059261 22.7558079,76.7330519 C22.8357741,76.8602856 22.8981499,76.9802888 22.9429353,77.0933855 C22.9828645,77.1922371 23.0112466,77.2876354 23.0276499,77.3793645 C23.0441611,77.4713095 23.0524707,77.5548369 23.0524707,77.6302707 C23.0524707,77.7244819 23.0436216,77.8067143 23.0259232,77.8775076 C23.0083328,77.9480851 22.9887999,78.0081947 22.9676482,78.0576205 C22.9393741,78.1210755 22.8958837,78.1929479 22.8369612,78.2730221 C22.7781467,78.3530962 22.6962379,78.4272349 22.5914509,78.4954382 C22.4867718,78.5638574 22.3548977,78.6214849 22.1959365,78.6685365 C22.0370832,78.7155882 21.8445599,78.7392219 21.6185825,78.7392219 L19.7749457,78.7392219 Z M4.47362029,79.7616995 C4.63020731,79.7346125 4.75916768,79.6875608 4.86039347,79.6203288 C4.96151135,79.5532046 5.03759257,79.4632021 5.08809755,79.3502134 C5.13881836,79.2372247 5.16525793,79.0946669 5.1676321,78.9228636 C5.13460961,78.9134749 5.08227005,78.8993378 5.01050549,78.8804524 C4.93863302,78.861567 4.85381056,78.8392282 4.75614601,78.8133282 C4.65848147,78.7874282 4.55239942,78.7591541 4.43833155,78.7286137 C4.32404785,78.6980733 4.20814539,78.6667775 4.09040836,78.63505 C3.97267132,78.6032146 3.85666095,78.5725662 3.74259308,78.5432129 C3.62830937,78.5138596 3.52298275,78.4872042 3.42650529,78.4637863 C3.36520865,78.3082784 3.31999158,78.1570872 3.29042243,78.009889 C3.2610691,77.8626907 3.24639244,77.7185141 3.24639244,77.5772512 C3.24639244,77.3088626 3.29581826,77.0551506 3.39466988,76.8161153 C3.49352151,76.5771879 3.63489229,76.3688009 3.81856638,76.1909543 C4.00213256,76.0133235 4.2263833,75.8726002 4.49131862,75.7688924 C4.75614601,75.6654003 5.05464339,75.6136003 5.38659493,75.6136003 C5.50433196,75.6136003 5.62152942,75.6228812 5.73807937,75.6417666 C5.85462933,75.660652 5.98693511,75.6901132 6.13532046,75.7301503 L5.9129043,76.5777275 C5.80218185,76.544705 5.70559647,76.5206396 5.62325608,76.5053154 C5.54080778,76.4900992 5.45609323,76.4823292 5.36900452,76.4823292 C5.192345,76.4823292 5.02820382,76.5076896 4.87625721,76.5583025 C4.72441852,76.6089154 4.59254441,76.6825145 4.48063487,76.778992 C4.36883325,76.8755773 4.28055745,76.9933144 4.21580748,77.1322031 C4.1510575,77.2711997 4.11868251,77.4288659 4.11868251,77.6055254 L4.11868251,77.6496633 C4.11868251,77.6649874 4.1198696,77.6796641 4.12224376,77.6938012 L5.36188202,78.0116156 C5.58785943,78.0681639 5.75156895,78.1641018 5.85279474,78.2994293 C5.95402054,78.4348646 6.00474135,78.602675 6.00474135,78.8027524 C6.00474135,79.1299556 5.96697053,79.4120497 5.89175264,79.6486029 C5.81621101,79.885372 5.69566814,80.0807011 5.52969237,80.2349139 C5.36360869,80.3890189 5.14820711,80.5033026 4.88337971,80.5775492 C4.6184444,80.6516879 4.29642119,80.6888112 3.91741801,80.6888112 L3.17214581,80.6888112 C2.97908297,80.6888112 2.79422179,80.6663646 2.61767019,80.6216871 C2.4411186,80.5769017 2.27514283,80.5126913 2.11974289,80.4292718 C1.96423503,80.3455285 1.82178509,80.2443027 1.69239306,80.1253786 C1.56278519,80.0065623 1.44871732,79.8717745 1.34975778,79.721015 C1.11665787,79.344278 1,78.9027911 1,78.3966622 C1,78.2411543 1.01068375,78.0869414 1.0318354,77.9339157 C1.05309498,77.7809978 1.08665705,77.6236554 1.13252161,77.4624279 C1.1784941,77.3012005 1.23676907,77.1322031 1.30734654,76.9556515 C1.37792402,76.778992 1.4628544,76.5883033 1.56170603,76.3834775 L2.3457203,76.7614016 C2.263272,76.9356869 2.19323411,77.0951877 2.13560663,77.2400118 C2.07787124,77.3848359 2.02963251,77.5213504 1.99078252,77.6496633 C1.95193254,77.7779761 1.92365838,77.9016486 1.90596006,78.0204648 C1.88836965,78.1393889 1.87952048,78.2588526 1.87952048,78.3789638 C1.87952048,78.720412 1.95484629,79.0099523 2.10560581,79.2478006 C2.21384619,79.4267263 2.36169196,79.5638884 2.54881939,79.6592867 C2.73594681,79.7546849 2.94368631,79.8022762 3.17214581,79.8022762 L3.91741801,79.8022762 C4.13163251,79.8022762 4.31703327,79.7886787 4.47362029,79.7616995 Z M8.91833911,78.5237124 C8.90420203,78.8487573 8.84420039,79.1412113 8.73822627,79.4013983 C8.63225214,79.6615853 8.48624095,79.8829223 8.30019269,80.0654093 C8.11425235,80.2478963 7.8893541,80.3885117 7.62560587,80.4873633 C7.36196556,80.5863228 7.06411568,80.6357486 6.73216414,80.6357486 L6.29423848,80.6357486 L6.29423848,79.7563361 L6.73216414,79.7563361 C6.95814155,79.7563361 7.15357856,79.7328102 7.31847516,79.6857586 C7.48315593,79.638599 7.61859129,79.5632732 7.72456542,79.4596733 C7.83053954,79.3560733 7.90931868,79.2212855 7.96122657,79.0553097 C8.01291864,78.8893339 8.03892654,78.6874219 8.03892654,78.4495737 L8.03892654,76.2986874 L8.91833911,76.2986874 L8.91833911,78.5237124 Z M11.1290435,76.5141861 C10.9289661,76.5141861 10.7700049,76.576562 10.6522679,76.7013136 C10.5345308,76.8261731 10.4757163,77.020423 10.4757163,77.2840633 C10.4757163,77.3877712 10.4963284,77.476047 10.5375525,77.5489987 C10.5786687,77.6220582 10.6316558,77.6814124 10.6964058,77.7272769 C10.7611558,77.7732494 10.8335678,77.8068115 10.9136419,77.8279631 C10.9936082,77.8491148 11.0736823,77.8597985 11.1537564,77.8597985 L11.6977641,77.8597985 L11.6977641,77.3794616 C11.6977641,77.2452134 11.6870804,77.130498 11.6659287,77.0350997 C11.6446692,76.9397014 11.6169346,76.8602748 11.5829408,76.7967119 C11.5488392,76.7330411 11.5098813,76.6825361 11.4663909,76.6448732 C11.4227926,76.6072103 11.3803813,76.5789361 11.3391572,76.5600507 C11.297933,76.5412732 11.2585435,76.5288628 11.2209885,76.5229274 C11.1832177,76.5170999 11.1526773,76.5141861 11.1290435,76.5141861 Z M17.8535982,74.8223988 L17.2602726,75.422739 L16.6421261,74.8294134 L17.2496967,74.2220586 L17.8535982,74.8223988 Z M17.0731451,73.8264363 L16.5079858,74.3915957 L15.9499489,73.8335588 L16.5151083,73.2683994 L17.0731451,73.8264363 Z M16.3384488,74.8365359 L15.7380007,75.4439986 L15.1376605,74.8435505 L15.7380007,74.2360878 L16.3384488,74.8365359 Z M28.5407217,76.9838933 C28.5548588,76.9180641 28.5596071,76.8513716 28.5548588,76.7842475 C28.5501105,76.7172313 28.5395346,76.6460063 28.5231313,76.5706805 C28.5066201,76.4953547 28.484713,76.4140935 28.4577338,76.3270048 C28.4306468,76.2398081 28.401833,76.1421436 28.3712926,76.0337953 C27.9944478,76.1539065 27.7090083,76.2898814 27.5147584,76.4418281 C27.3205084,76.5936667 27.2233835,76.7814417 27.2233835,77.0050449 C27.2233835,77.0922415 27.2428085,77.1699415 27.2816585,77.2381448 C27.3205084,77.306456 27.3711213,77.3630044 27.4334971,77.4076818 C27.495873,77.4524672 27.5653713,77.4848422 27.6418841,77.5048068 C27.718397,77.5248793 27.7955574,77.5289801 27.8732574,77.5171093 C28.049809,77.4913172 28.1968993,77.4389777 28.3147443,77.3599827 C28.4324813,77.2812036 28.5076992,77.1558044 28.5407217,76.9838933 Z M32.7611682,80.6605479 L32.1678426,80.0600998 L32.7541536,79.4526371 L33.3615084,80.0600998 L32.7611682,80.6605479 Z M31.2813075,80.6640012 L30.6879819,80.063661 L31.2707317,79.4561984 L31.8781944,80.063661 L31.2813075,80.6640012 Z M35.5194631,78.7427076 C35.4300003,78.7427076 35.3417245,78.7379593 35.2546358,78.7285705 C35.1674391,78.7191818 35.0791633,78.7062318 34.9897004,78.6898285 C34.9002376,78.6732093 34.8082926,78.6527051 34.7141893,78.6279922 C34.6199781,78.6031714 34.5211265,78.5755447 34.4175265,78.5448964 L33.9972992,78.4177706 L34.2515507,77.5701935 C34.4563765,77.640771 34.6688643,77.7031468 34.8890142,77.7573209 C35.1091641,77.8114951 35.3163641,77.8467838 35.510614,77.8634029 C35.7048639,77.8798063 35.8732138,77.8721442 36.0157717,77.8404167 C36.1581137,77.8085813 36.2541595,77.7409176 36.3035853,77.6373176 C36.3199887,77.6042951 36.3218232,77.563071 36.3087653,77.5136452 C36.2958153,77.4642194 36.2705629,77.4124194 36.2328999,77.3582452 L34.9154538,75.4368977 L35.6571648,74.9566687 L35.8973872,75.3274702 C35.8973872,75.3298444 35.901488,75.3368589 35.9096897,75.3486219 C35.9178913,75.3604927 35.9345105,75.3852056 35.9591155,75.4227606 C35.9839363,75.4605314 36.019225,75.514058 36.0651975,75.5835564 C36.1109542,75.6529467 36.1716033,75.7442442 36.247037,75.8572329 C36.3222549,75.9703295 36.4148474,76.1097578 36.5242748,76.2758415 C36.6337023,76.4418173 36.7650368,76.640168 36.9180626,76.8707858 C37.0381738,77.0521937 37.1117729,77.2393211 37.13886,77.432384 C37.1658392,77.6254468 37.1416658,77.8092288 37.066448,77.9834062 C37.026303,78.0776174 36.9728842,78.1641666 36.9057601,78.2429457 C36.838636,78.3219407 36.7602885,78.3918707 36.6708256,78.4530594 C36.5036628,78.5685302 36.3022903,78.6473093 36.0669242,78.6898285 C35.869113,78.7251172 35.686626,78.7427076 35.5194631,78.7427076 Z M47.2733209,75.0837621 L46.6798874,74.4834219 L47.2661984,73.8759592 L47.8736611,74.4834219 L47.2733209,75.0837621 Z M45.7934603,75.0873233 L45.2001347,74.4868752 L45.7827765,73.8794126 L46.3902392,74.4868752 L45.7934603,75.0873233 Z M48.7918697,78.7392543 L48.7918697,73.646345 L49.6711744,73.646345 L49.6711744,78.7392543 L48.7918697,78.7392543 Z M54.5309189,76.5141861 C54.3308415,76.5141861 54.1718803,76.576562 54.0541433,76.7013136 C53.9364063,76.8261731 53.8775917,77.020423 53.8775917,77.2840633 C53.8775917,77.3877712 53.8982038,77.476047 53.9394279,77.5489987 C53.9805442,77.6220582 54.0335312,77.6814124 54.0982812,77.7272769 C54.1630312,77.7732494 54.2354432,77.8068115 54.3155174,77.8279631 C54.3954836,77.8491148 54.4755577,77.8597985 54.5556319,77.8597985 L55.0996396,77.8597985 L55.0996396,77.3794616 C55.0996396,77.2452134 55.0889558,77.130498 55.0678041,77.0350997 C55.0465446,76.9397014 55.01881,76.8602748 54.9848163,76.7967119 C54.9507146,76.7330411 54.9117567,76.6825361 54.8682663,76.6448732 C54.824668,76.6072103 54.7822568,76.5789361 54.7410326,76.5600507 C54.6998085,76.5412732 54.6604189,76.5288628 54.6228639,76.5229274 C54.5850931,76.5170999 54.5545527,76.5141861 54.5309189,76.5141861 Z M60.4502105,74.2961974 L61.0860553,73.653338 L61.7358213,74.3032119 L61.0930698,74.9459634 L60.4502105,74.2961974 Z M61.0930698,76.5246756 C60.9516991,76.5246756 60.808062,76.5612594 60.6621588,76.634211 C60.5161476,76.7072706 60.3725105,76.8054747 60.2313556,76.9290392 C60.0899848,77.0527117 59.9540099,77.194622 59.8233228,77.3547703 C59.6926358,77.5148107 59.5731721,77.6831606 59.4648238,77.8597122 L61.0506586,77.8597122 C61.1401215,77.8597122 61.2307715,77.845683 61.3226085,77.8174089 C61.4144455,77.7891347 61.4974334,77.7472631 61.5716801,77.6920098 C61.6457109,77.6366485 61.7058204,77.5683373 61.7517929,77.4870761 C61.7976575,77.4059228 61.8205358,77.3135462 61.8205358,77.2099462 C61.8205358,77.0780721 61.8005712,76.9679971 61.7606421,76.8796134 C61.7204971,76.7913376 61.6669704,76.7207601 61.5998463,76.6677731 C61.5327222,76.614786 61.4555618,76.5777706 61.368581,76.556511 C61.2813844,76.5353594 61.1896552,76.5246756 61.0930698,76.5246756 Z" id="Fill-8" fill="#232F7A"></path>
                    <path d="M64.4089219,89.4624158 L64.2342593,89.4624158 C64.0034643,89.4624158 63.8028668,89.4371485 63.6325694,89.3868194 C63.4622721,89.3363876 63.3153932,89.2540121 63.1922409,89.1396931 C63.0780245,89.2450761 62.9439847,89.3250892 62.7905322,89.3801431 C62.6370797,89.4349916 62.4806486,89.4624158 62.3215469,89.4624158 C62.1108835,89.4624158 61.9266173,89.436635 61.7685427,89.3850733 C61.6105709,89.3336143 61.4699574,89.2506226 61.3468051,89.1364063 C61.2302264,89.2395297 61.0996788,89.3190291 60.9551623,89.3750075 C60.8105431,89.4310885 60.6643832,89.4601561 60.5164772,89.4624158 C60.3058138,89.4646755 60.1204177,89.4377648 59.9601862,89.3816838 C59.799852,89.3257055 59.6614982,89.2483629 59.5450222,89.1497589 C59.2827972,89.3582653 58.9310068,89.4624158 58.4895484,89.4624158 L58.2407993,89.4624158 L58.0323956,89.462498 C57.9561829,89.462498 57.8749373,89.4573624 57.7886588,89.4472965 C57.7023803,89.437128 57.6161018,89.4203859 57.5298232,89.3968647 C57.4435447,89.3733435 57.3600395,89.3413999 57.2794101,89.3010339 C57.1986781,89.2607706 57.1269848,89.2114686 57.0642274,89.1532306 C56.8200798,89.3571149 56.4883184,89.4601356 56.0692513,89.462498 L52.1900051,89.462498 C52.0242271,89.462498 51.8673851,89.4343548 51.7194791,89.3783764 C51.571573,89.3223981 51.4405119,89.2405362 51.3261928,89.1329962 C51.2814102,89.0903705 51.2348814,89.0389116 51.1867093,88.9784139 C51.1384344,88.9179162 51.0952951,88.8462229 51.0572915,88.7632312 C51.0191851,88.6803422 50.9877551,88.5867711 50.9631041,88.4826206 C50.9384531,88.3783674 50.9262303,88.2612751 50.9262303,88.1313438 C50.9262303,88.0192845 50.9373233,87.8976728 50.9598173,87.7666117 C50.9822086,87.6354478 51.0073732,87.5115765 51.0354137,87.3951005 C51.0634542,87.2786245 51.0897486,87.1777608 51.1143996,87.0925094 C51.1390506,87.0073608 51.1547657,86.954772 51.1615447,86.9345376 L51.5615072,87.062312 L51.9581829,87.1866968 C51.9379486,87.2471945 51.9165844,87.3194014 51.8942958,87.4035229 C51.8719044,87.4875418 51.8506429,87.5744366 51.8304086,87.6640019 C51.8102769,87.7536699 51.7934321,87.8400511 51.7799767,87.9228374 C51.7665214,88.0058291 51.7598451,88.0774197 51.7598451,88.1380201 C51.7598451,88.2455601 51.7749438,88.3324549 51.8051413,88.3984991 C51.8354415,88.4646459 51.8725207,88.5150778 51.9160708,88.5497946 C51.9598263,88.5846141 52.0073822,88.6074163 52.0589439,88.6187147 C52.1105056,88.6299103 52.1564181,88.6355595 52.1968868,88.6355595 L56.0457301,88.6355595 C56.1689852,88.6355595 56.2742655,88.6237476 56.3617765,88.6002264 C56.4490822,88.5767053 56.5140992,88.5426047 56.5567249,88.4977193 C56.6081839,88.4394813 56.6339647,88.3553598 56.6339647,88.2455601 L56.6339647,87.1395518 L57.4675795,87.1395518 L57.4675795,88.1245648 C57.4675795,88.2030371 57.4793914,88.2695949 57.5029126,88.324546 C57.5264337,88.3794972 57.5567339,88.4254097 57.5937104,88.4623862 C57.6306869,88.4993627 57.6715665,88.5285331 57.7163492,88.5497946 C57.7612345,88.5711588 57.8048874,88.5872847 57.8474103,88.5984803 C57.8901387,88.6097787 57.9276288,88.6169686 57.960086,88.6203581 C57.9926458,88.6237476 58.0166806,88.625391 58.0323956,88.625391 L58.2407993,88.625391 L58.4895484,88.6254115 C58.6217394,88.6254115 58.7286632,88.6142159 58.810525,88.5918245 C58.8923869,88.5694332 58.9561714,88.5363598 59.0020839,88.4926043 C59.0479964,88.4489514 59.0788101,88.3957464 59.0945251,88.3328863 C59.1102401,88.2702317 59.118149,88.1985383 59.118149,88.117909 L59.118149,87.1395723 L59.9550506,87.1395723 L59.9550506,88.1010642 C59.9550506,88.2825572 59.9988061,88.4147482 60.0862145,88.4977399 C60.1736228,88.5805262 60.3125928,88.6232546 60.5030218,88.6254115 L60.4996323,88.6254115 C60.5332193,88.6232546 60.5742016,88.6164756 60.6223738,88.6052799 C60.6705459,88.5939815 60.7175883,88.5711793 60.7635008,88.5363598 C60.809516,88.501643 60.8486494,88.4512111 60.8812093,88.3850643 C60.9136665,88.3190201 60.929895,88.2298657 60.929895,88.117909 L60.929895,87.1395723 L61.7636125,87.1395723 L61.7636125,88.1010642 C61.7636125,88.2848168 61.8072653,88.4181377 61.8946737,88.5010267 C61.982082,88.5840184 62.1243389,88.6254115 62.3215469,88.6254115 C62.3753682,88.6254115 62.4285733,88.6169891 62.4812648,88.600247 C62.5339564,88.5834021 62.581615,88.5553616 62.6241379,88.5162281 C62.6667636,88.476992 62.7014805,88.4260466 62.7282884,88.3631865 C62.7551991,88.3005319 62.7708114,88.2231893 62.7753308,88.1312616 L62.7753308,88.1346511 L62.7753308,87.1395723 L63.6124378,87.1395723 L63.6124378,88.1346511 C63.6169571,88.3072082 63.6695459,88.4321066 63.7704096,88.5094491 C63.8712733,88.5867916 64.0258556,88.6254115 64.2342593,88.6254115 L64.5636583,88.6254115 L66.3754557,88.6254526 C66.4111997,88.6254526 66.4606044,88.6237065 66.5233617,88.6204197 C66.5860164,88.6170302 66.6477466,88.6080942 66.7082443,88.593509 C66.7687419,88.5789239 66.8208172,88.5576624 66.86447,88.5296218 C66.9082255,88.501684 66.9301033,88.4629614 66.9301033,88.4136594 C66.9301033,88.3173151 66.8935376,88.2007364 66.8208172,88.064026 C66.7478913,87.9274184 66.6544229,87.7816693 66.5401039,87.627087 C66.4258876,87.4724019 66.2975996,87.3161762 66.1552401,87.1581017 C66.0128806,87.0001298 65.8717536,86.851094 65.7317564,86.7110968 C65.5916565,86.5710996 65.4598764,86.4472283 65.3367241,86.3395856 C65.2134691,86.2320456 65.114865,86.1514163 65.040912,86.0974922 L65.1081887,85.3379332 L68.0326194,84 L68.3386,84.7327511 L65.8779163,85.8185251 C65.963065,85.9015168 66.058793,85.9956014 66.1654086,86.1008818 C66.2718188,86.2062648 66.3810022,86.3178106 66.4930616,86.4353137 C66.6051209,86.5530222 66.7166667,86.6751474 66.8275962,86.8017919 C66.9385257,86.9284365 67.0427789,87.055081 67.1401504,87.1816228 C67.2376246,87.3082674 67.3245194,87.4320359 67.400732,87.5530313 C67.476842,87.6741293 67.5362098,87.7883456 67.5788355,87.8959884 C67.6168392,87.990073 67.6438526,88.0808709 67.6594649,88.1681765 C67.6751799,88.2556876 67.6830887,88.3351871 67.6830887,88.4069831 C67.6830887,88.4966511 67.6746663,88.5749181 67.6578215,88.6422975 C67.6410793,88.7094715 67.6224884,88.7666823 67.6023567,88.8137247 C67.575446,88.8741196 67.5340529,88.9425262 67.4779718,89.0187388 C67.4219935,89.0949515 67.3440347,89.165515 67.2443009,89.2304293 C67.1446697,89.2955491 67.0191551,89.3503975 66.8678595,89.3951802 C66.7166667,89.4399629 66.5334276,89.4624569 66.3183476,89.4624569 L64.4089219,89.4624569 Z M38.552649,89.4605329 C38.3682908,89.4555894 38.2058167,89.4411148 38.0652267,89.417058 C37.8882531,89.3868605 37.7392172,89.3419751 37.6182219,89.2826073 C37.4971238,89.2232395 37.4002659,89.147643 37.3274427,89.0557153 C37.2546196,88.9638904 37.1991548,88.8562476 37.1610485,88.7328899 C37.1229421,88.6097376 37.0977776,88.470254 37.0853493,88.3144391 C37.0730238,88.1588297 37.0669638,87.9867862 37.0669638,87.7985142 L37.0669638,84.6151452 L37.9039681,84.6151452 L37.9039681,87.7985142 C37.9039681,87.9778502 37.9101308,88.1211342 37.9224563,88.2287769 C37.9346791,88.3363169 37.967239,88.4199249 38.0199305,88.47919 C38.0725193,88.5385578 38.1521215,88.5778967 38.2585317,88.5967958 C38.3649418,88.6159004 38.5123343,88.6254526 38.7006063,88.6254526 L40.5191827,88.6254526 C40.5549267,88.6254526 40.6043314,88.6237065 40.6670888,88.6204197 C40.7297434,88.6170302 40.7914736,88.6080942 40.8519713,88.593509 C40.912469,88.5789239 40.9645442,88.5576624 41.008197,88.5296218 C41.0519526,88.501684 41.0738303,88.4629614 41.0738303,88.4136594 C41.0738303,88.3173151 41.0372647,88.2007364 40.9645442,88.064026 C40.8916183,87.9274184 40.7981499,87.7816693 40.6838309,87.627087 C40.5696146,87.4724019 40.4413267,87.3161762 40.2989671,87.1581017 C40.1566076,87.0001298 40.0154806,86.851094 39.8754834,86.7110968 C39.7353836,86.5710996 39.6036034,86.4472283 39.4804511,86.3395856 C39.3571961,86.2320456 39.2585921,86.1514163 39.1846391,86.0974922 L39.2519158,85.3379332 L42.1763464,84 L42.482327,84.7327511 L40.0216433,85.8185251 C40.106792,85.9015168 40.2025201,85.9956014 40.3091357,86.1008818 C40.4155458,86.2062648 40.5247292,86.3178106 40.6367886,86.4353137 C40.7488479,86.5530222 40.8603937,86.6751474 40.9713232,86.8017919 C41.0822527,86.9284365 41.1865059,87.055081 41.2838774,87.1816228 C41.3813516,87.3082674 41.4682464,87.4320359 41.5444591,87.5530313 C41.620569,87.6741293 41.6799369,87.7883456 41.7225626,87.8959884 C41.7605662,87.990073 41.7875796,88.0808709 41.8031919,88.1681765 C41.8189069,88.2556876 41.8268158,88.3351871 41.8268158,88.4069831 C41.8268158,88.4966511 41.8183933,88.5749181 41.8015485,88.6422975 C41.7848063,88.7094715 41.7662154,88.7666823 41.7460837,88.8137247 C41.719173,88.8741196 41.6777799,88.9425262 41.6216989,89.0187388 C41.5657205,89.0949515 41.4877617,89.165515 41.3880279,89.2304293 C41.2883968,89.2955491 41.1628821,89.3503975 41.0115865,89.3951802 C40.8603937,89.4399629 40.6771546,89.4624569 40.4620746,89.4624569 L38.552649,89.4624569 L38.552649,89.4605329 Z M29.2144586,89.459849 L29.2144586,88.6254526 L29.5942895,88.6254526 C29.6569441,88.6254526 29.7124089,88.6259662 29.7606838,88.627096 C29.8088559,88.6282259 29.8547684,88.6288421 29.898524,88.6288421 C29.9421768,88.6288421 29.9859323,88.6277123 30.0295851,88.6254526 C30.0732379,88.6231929 30.1220264,88.6186736 30.175745,88.6119973 C30.117507,88.5447206 30.0654318,88.47919 30.0195193,88.4153028 C29.9735041,88.3515184 29.9343706,88.2841389 29.9018108,88.2136782 C29.8693536,88.1430119 29.8447026,88.0680318 29.8278577,87.9883269 C29.8110129,87.9089301 29.8025905,87.8208028 29.8025905,87.7245612 C29.8025905,87.5408085 29.8379236,87.3715383 29.9085898,87.2169559 C29.9791533,87.0623736 30.0766275,86.9301826 30.2010123,86.8202802 C30.3253972,86.7104805 30.4710435,86.6248183 30.6379513,86.5630881 C30.8048592,86.5015633 30.9847088,86.4706468 31.1775002,86.4706468 C31.3948399,86.4706468 31.5881448,86.5138888 31.757415,86.6001673 C31.9265825,86.6864458 32.0688394,86.7950129 32.1842882,86.9261768 C32.2997371,87.057238 32.3870427,87.1990839 32.4465133,87.3514066 C32.5058811,87.503832 32.535565,87.6460888 32.535565,87.7782798 C32.535565,87.8858198 32.5248829,87.9845265 32.5036214,88.0740919 C32.4822572,88.1637599 32.4525733,88.248395 32.4145697,88.3278945 C32.3764633,88.407394 32.3293183,88.4830931 32.27334,88.5547864 C32.2173617,88.6265825 32.1546043,88.697146 32.0851707,88.7666823 C32.1546043,88.7889709 32.2262977,88.8097189 32.3002507,88.8288234 C32.3742037,88.8479279 32.445897,88.8572748 32.5153307,88.8572748 C32.5847643,88.8572748 32.6576902,88.8522419 32.7339029,88.8422787 C32.8101156,88.8321102 32.8823225,88.8119785 32.950729,88.7816784 C33.0190328,88.7514809 33.0796332,88.7094715 33.132222,88.6556501 C33.1848108,88.6018287 33.2246633,88.5312652 33.2514712,88.4438569 C33.276225,88.3609679 33.2666727,88.2617476 33.2230199,88.1462987 C33.1792644,88.0309526 33.1098307,87.9005077 33.0146162,87.7547586 C32.919299,87.6091123 32.8011796,87.4483672 32.6599499,87.2724207 C32.5188229,87.0964741 32.3641378,86.9044017 32.1959975,86.6958953 L31.8464668,86.2623458 L32.4784569,85.7882249 C32.6241032,85.9810162 32.7720092,86.1760673 32.9220722,86.3731726 C32.9848296,86.458424 33.05149,86.5468595 33.1221562,86.6387872 C33.1927197,86.7306122 33.264413,86.8241833 33.3372362,86.9193978 C33.4100594,87.014715 33.4812391,87.1094159 33.5507755,87.2035006 C33.6201065,87.2975852 33.6874859,87.3872533 33.7524002,87.4724019 C33.8913702,87.6584143 33.9815518,87.8617851 34.0230477,88.0825143 C34.0645435,88.3033462 34.0482122,88.522432 33.9743619,88.7396689 C33.9294766,88.8741196 33.8638433,88.9974773 33.7776675,89.109434 C33.6913889,89.2214933 33.5865195,89.3179404 33.4633672,89.3985697 C33.3401121,89.479199 33.1988824,89.5418537 33.0397808,89.5868418 C32.8806791,89.6315217 32.7058624,89.6540157 32.5153307,89.6540157 C32.354072,89.6540157 32.1870615,89.6377872 32.0146072,89.60533 C31.8419474,89.5727701 31.6660009,89.5116562 31.4867676,89.4220909 C31.4464015,89.4042189 31.4071654,89.3862442 31.369059,89.3682695 C31.335472,89.3526572 31.3007552,89.3363259 31.2649085,89.3194811 C31.2290619,89.3027389 31.1987617,89.2876402 31.1742134,89.2741849 C30.9590307,89.3392019 30.7209431,89.3868605 30.4598478,89.417058 C30.1987526,89.4472554 29.9102332,89.4624569 29.5942895,89.4624569 L29.2144586,89.4624569 L29.2144586,89.459849 C29.0397423,89.4543383 28.8850846,89.4400897 28.7504856,89.417058 C28.573512,89.3868605 28.4244761,89.3419751 28.3034808,89.2826073 C28.1823827,89.2232395 28.0855248,89.147643 28.0127017,89.0557153 C27.9398785,88.9638904 27.8844137,88.8562476 27.8463074,88.7328899 C27.808201,88.6097376 27.7830365,88.470254 27.7706083,88.3144391 C27.7582828,88.1588297 27.7522227,87.9867862 27.7522227,87.7985142 L27.7522227,84.6151452 L28.589227,84.6151452 L28.589227,87.7985142 C28.589227,87.9778502 28.5953898,88.1211342 28.6077153,88.2287769 C28.619938,88.3363169 28.6524979,88.4199249 28.7051894,88.47919 C28.7577782,88.5385578 28.8373804,88.5778967 28.9437906,88.5967958 C29.0502008,88.6159004 29.1975932,88.6254526 29.3858653,88.6254526 L29.3858653,89.4624569 C29.326732,89.4624569 29.2695964,89.4615881 29.2144586,89.459849 Z M15.1871846,89.4624158 L14.7670192,89.4624158 C14.5002748,89.4601561 14.2610573,89.4014046 14.0492641,89.2859557 C13.8375736,89.1706096 13.6722065,88.9974363 13.5534708,88.7666412 C13.3809138,88.8517899 13.1949014,88.9363223 12.9955364,89.0204439 C12.795966,89.1044627 12.5875623,89.179032 12.3702227,89.2438436 C12.1527803,89.3089633 11.9298941,89.3615521 11.7012561,89.4019181 C11.4727207,89.4422842 11.2441854,89.4624158 11.0155473,89.4624158 L10.2222575,89.4624158 C10.2148336,89.4624569 10.2074412,89.4624432 10.2000803,89.4624158 L10.0137922,89.4624158 L10.0137922,89.4585373 C9.8541866,89.4522622 9.71188184,89.4384479 9.58687788,89.417058 C9.40990422,89.3868605 9.26086836,89.3419751 9.13987302,89.2826073 C9.01877497,89.2232395 8.92191707,89.147643 8.8490939,89.0557153 C8.77627072,88.9638904 8.72080597,88.8562476 8.68269962,88.7328899 C8.64459328,88.6097376 8.61942872,88.470254 8.6070005,88.3144391 C8.594675,88.1588297 8.58861496,87.9867862 8.58861496,87.7985142 L8.58861496,84.6151452 L9.42561924,84.6151452 L9.42561924,87.7985142 C9.42561924,87.9778502 9.43178199,88.1211342 9.44410749,88.2287769 C9.45633028,88.3363169 9.48889014,88.4199249 9.54158166,88.47919 C9.59417047,88.5385578 9.67377267,88.5778967 9.78018283,88.5967958 C9.88256387,88.615177 10.0228824,88.6247156 10.2010471,88.6254115 L11.0155473,88.6254115 C11.2351467,88.6254115 11.4693312,88.6030202 11.7181009,88.5582376 C11.9668706,88.5133522 12.2122508,88.4557305 12.4542415,88.3850643 C12.6963349,88.3145008 12.9266163,88.2355148 13.1450859,88.1481065 C13.3635554,88.0606981 13.5534708,87.9744196 13.7148322,87.889271 C13.6139685,87.8578409 13.503039,87.8236377 13.3820436,87.7867639 C13.2610483,87.7497874 13.1376906,87.7127081 13.0122786,87.6758344 C12.8867639,87.6388578 12.762379,87.6030112 12.639124,87.5681916 C12.5159717,87.5334748 12.4005229,87.5026611 12.2929828,87.4758531 C12.1853401,87.4489424 12.0888931,87.4275782 12.0038471,87.4119659 C11.9185957,87.3962509 11.8514218,87.388342 11.8021197,87.388342 C11.7505581,87.388342 11.7051591,87.3946075 11.6660257,87.406933 C11.6266868,87.4192585 11.5915591,87.4393901 11.5601291,87.4674307 C11.528699,87.4954712 11.4996314,87.5318314 11.4727207,87.5766141 C11.44581,87.6214994 11.4177695,87.6752181 11.3887019,87.7379754 L10.6188716,87.5060506 C10.6613946,87.3715999 10.7135725,87.2454689 10.7752,87.1278631 C10.8368275,87.0101546 10.9118077,86.9076475 11.0004486,86.8203418 C11.0888841,86.7328308 11.1914939,86.6639107 11.3079698,86.6135815 C11.4245485,86.5631497 11.5578694,86.5379851 11.7079324,86.5379851 C11.7662731,86.5379851 11.8491621,86.5503106 11.9567021,86.5748589 C12.0643448,86.5995099 12.18647,86.6320698 12.3231803,86.6723331 C12.4598907,86.7126991 12.6061533,86.7586116 12.7618655,86.8101733 C12.9175776,86.861735 13.0739061,86.915659 13.2308508,86.9715346 C13.3875901,87.027513 13.5400155,87.0825669 13.6879215,87.1362855 C13.8358275,87.1900042 13.9691484,87.2387926 14.087884,87.2825481 C14.2067224,87.326201 14.3064563,87.3626639 14.3870856,87.3917315 C14.4678176,87.4207992 14.5193793,87.4387739 14.5417706,87.4455529 L14.6392448,88.1245853 C14.6280491,88.1312616 14.5922025,88.1553991 14.5317048,88.1967922 C14.4712071,88.2382881 14.3893453,88.2914932 14.2863246,88.3565102 C14.3087159,88.4236842 14.3434328,88.4758621 14.3905778,88.5127359 C14.4376201,88.5498151 14.4856896,88.5766231 14.5350943,88.5934679 C14.5842936,88.6103128 14.6308224,88.6198651 14.6744752,88.6221247 C14.7182307,88.6242817 14.7490445,88.6254115 14.7670192,88.6254115 L15.1804064,88.6254115 L15.6006031,88.625391 C15.6499051,88.625391 15.6930444,88.6109085 15.7300209,88.5816355 C15.7669974,88.5525678 15.8005844,88.5116882 15.8307819,88.4589967 C15.861082,88.4063052 15.8891226,88.3425207 15.9149034,88.2674379 C15.9406842,88.192355 15.9670814,88.1089525 15.9938893,88.0169221 C16.038672,87.8556634 16.0924933,87.6892691 16.1552507,87.517842 C16.218008,87.3463121 16.3014106,87.1900863 16.4056638,87.0489593 C16.509917,86.9077296 16.6414917,86.7917672 16.8006961,86.7009693 C16.9597978,86.6101715 17.1570058,86.5648753 17.3923202,86.5648753 C17.6276346,86.5648753 17.8331623,86.6084254 18.0091088,86.6959364 C18.1849527,86.7833448 18.330599,86.900437 18.4460479,87.0472132 C18.5614967,87.1939894 18.6477753,87.3637732 18.7049861,87.5564619 C18.7620943,87.7492533 18.7906484,87.9508779 18.7906484,88.1615413 C18.7906484,88.394596 18.7705167,88.5929338 18.7301507,88.7565549 C18.6897847,88.9200732 18.6365796,89.0557564 18.5704327,89.1631937 C18.5043886,89.2707337 18.4293057,89.3554715 18.3452869,89.4169963 C18.2612681,89.4786238 18.1771465,89.5246391 18.0931277,89.5548365 C18.0091088,89.5851367 17.9278632,89.6040358 17.8494936,89.6120474 C17.7710212,89.6198536 17.7037445,89.6237566 17.6477662,89.6237566 C17.5357069,89.6237566 17.4292967,89.6130745 17.3283303,89.591813 C17.2275693,89.5704488 17.1250622,89.5402514 17.020809,89.5011179 C16.9166585,89.4618817 16.8085023,89.4137095 16.6964429,89.3564987 C16.5843836,89.2993905 16.4622584,89.2349898 16.3300674,89.1631937 C16.2292037,89.2707337 16.1211501,89.3475627 16.0057013,89.3935779 C15.8902524,89.4393877 15.7551854,89.462498 15.6006031,89.462498 L15.1871852,89.462498 Z M3.30611039,90.4356169 C3.45514624,90.409836 3.5778877,90.3650534 3.67423204,90.3010635 C3.77047366,90.2371763 3.84288598,90.1515141 3.89095544,90.0439741 C3.93923032,89.9364341 3.96439489,89.8007508 3.96665456,89.6372325 C3.93522453,89.6282965 3.88540896,89.6148412 3.81710514,89.5968665 C3.74869861,89.5788918 3.66796657,89.5576303 3.57501175,89.5329793 C3.48205692,89.5083283 3.38109052,89.4814176 3.2725234,89.45235 C3.16375084,89.4232823 3.0534376,89.3934957 2.94137825,89.3632982 C2.8293189,89.332998 2.71890295,89.3038277 2.61033582,89.2758899 C2.50156327,89.2479521 2.40131586,89.2225821 2.30949087,89.2002935 C2.25115016,89.0522847 2.20811362,88.9083845 2.17997039,88.7682846 C2.15203258,88.6281848 2.13806368,88.4909609 2.13806368,88.3565102 C2.13806368,88.1010642 2.18510601,87.859587 2.27919068,87.6320788 C2.37327534,87.4046733 2.50782873,87.2063355 2.68264543,87.0370652 C2.85735942,86.8680004 3.07079602,86.7340633 3.32295524,86.6353566 C3.57501175,86.5368553 3.85911456,86.4875533 4.17505825,86.4875533 C4.28711761,86.4875533 4.39866339,86.4963866 4.50959291,86.5143612 C4.62052242,86.5323359 4.74644797,86.5603765 4.88767767,86.5984828 L4.67598718,87.4051869 C4.57060414,87.3737568 4.47867644,87.350852 4.4003068,87.3362668 C4.32183443,87.3217843 4.24120511,87.314389 4.15831611,87.314389 C3.99017573,87.314389 3.83395,87.3385265 3.68933078,87.3866986 C3.54481427,87.4348708 3.41929958,87.5049207 3.3127867,87.5967457 C3.20637654,87.6886734 3.1223577,87.8007328 3.06073019,87.9329238 C2.99910268,88.0652175 2.96828893,88.2152805 2.96828893,88.3834209 L2.96828893,88.4254303 C2.96828893,88.4400155 2.96941877,88.4539844 2.97167844,88.4674397 L4.15153709,88.769928 C4.36661709,88.8237494 4.52243197,88.9150608 4.61877631,89.0438623 C4.71512065,89.1727665 4.76339553,89.3324845 4.76339553,89.5229135 C4.76339553,89.8343378 4.72744615,90.1028283 4.65585553,90.3279742 C4.58395677,90.5533254 4.46922689,90.7392351 4.31125505,90.8860113 C4.15318049,91.0326847 3.94816631,91.1414573 3.6961098,91.2121235 C3.44395058,91.282687 3.13745644,91.3180201 2.77673009,91.3180201 L2.06739747,91.3180201 C1.88364479,91.3180201 1.70769825,91.2966559 1.53966058,91.2541329 C1.37162291,91.2115072 1.21365106,91.1503933 1.06574504,91.0709965 C0.917736309,90.9912916 0.782155791,90.8949472 0.659003487,90.7817581 C0.535645758,90.6686716 0.427078632,90.5403836 0.332891257,90.3968943 C0.111032227,90.0383249 2.13162821e-14,89.618128 2.13162821e-14,89.1364063 C2.13162821e-14,88.9883976 0.0101685388,88.8416214 0.0303001915,88.695975 C0.0505345567,88.5504314 0.0824781484,88.4006766 0.126130967,88.2472241 C0.169886497,88.0937716 0.225351255,87.9329238 0.292525239,87.7648861 C0.359699223,87.5967457 0.440533971,87.4152527 0.534618633,87.2203044 L1.28082504,87.5800036 C1.20235268,87.7458843 1.13569226,87.8976934 1.08084378,88.0355336 C1.02589259,88.1733738 0.979980092,88.3033051 0.943003587,88.4254303 C0.906027082,88.5475555 0.879116404,88.665264 0.862271552,88.7783505 C0.845529412,88.8915397 0.837106986,89.0052424 0.837106986,89.1195614 C0.837106986,89.4445438 0.90880032,89.7201215 1.0522897,89.9464999 C1.15531035,90.1167972 1.2960265,90.2473448 1.47413,90.3381427 C1.65223349,90.4289406 1.84995508,90.4742368 2.06739747,90.4742368 L2.77673009,90.4742368 C2.98061443,90.4742368 3.15707453,90.461295 3.30611039,90.4356169 Z M6.49440952,85.6840538 L7.09948894,85.0722981 L7.7180237,85.6907301 L7.10616525,86.3025886 L6.49440952,85.6840538 Z M7.53653069,89.2573195 C7.52307535,89.5666896 7.46586448,89.8450405 7.3651035,90.0926803 C7.2641371,90.3403202 7.12526978,90.5509836 6.94819341,90.7246704 C6.77111703,90.8983573 6.55706416,91.0321917 6.30613748,91.1262764 C6.05521081,91.2204637 5.77172428,91.2675061 5.45578058,91.2675061 L5.03887049,91.2675061 L5.03887049,90.4305018 L5.45578058,90.4305018 C5.67075788,90.4305018 5.85687295,90.4081105 6.01371496,90.3633278 C6.17055697,90.3184424 6.29946117,90.2467491 6.40032486,90.1481451 C6.50108584,90.0495411 6.57616868,89.9212532 6.62547069,89.7632813 C6.6747727,89.6053095 6.6994237,89.4131343 6.6994237,89.1868587 L6.6994237,87.1395929 L7.53653069,87.1395929 L7.53653069,89.2573195 Z M11.8424858,90.6154665 L12.4475652,90.003608 L13.0660999,90.6221428 L12.4542415,91.2338985 L11.8424858,90.6154665 Z M17.6813532,88.8271184 C17.7014849,88.8271184 17.7335312,88.8232153 17.777184,88.8153064 C17.8208368,88.8075003 17.8651059,88.7833628 17.9099913,88.7430995 C17.9547739,88.7027335 17.9945237,88.6405924 18.0293432,88.5564709 C18.06406,88.4724521 18.0814185,88.35423 18.0814185,88.2018046 C18.0814185,88.1436693 18.0707364,88.0691 18.0494749,87.9783022 C18.0281107,87.887607 17.9912369,87.7990688 17.9385453,87.7126876 C17.8858538,87.6266145 17.8152903,87.5525588 17.7267521,87.4908286 C17.638214,87.4293038 17.5267709,87.39849 17.3923202,87.39849 C17.2757415,87.39849 17.180527,87.4333096 17.106574,87.5026405 C17.032621,87.5721769 16.9703772,87.6584554 16.9200481,87.761476 C16.8696162,87.8645994 16.8269905,87.9761452 16.7922737,88.0960107 C16.7574542,88.2158762 16.7200668,88.3250596 16.6795981,88.4236636 C16.7625898,88.470706 16.8505117,88.5183646 16.9434665,88.5666394 C17.0365241,88.6148116 17.1278355,88.6579509 17.2174008,88.6960572 C17.3070688,88.7341635 17.3917039,88.7654909 17.4713061,88.7901419 C17.5508056,88.8147929 17.6208555,88.8271184 17.6813532,88.8271184 Z M25.1420512,90.4356169 C25.2910871,90.409836 25.4138286,90.3650534 25.5101729,90.3010635 C25.6064145,90.2371763 25.6788268,90.1515141 25.7268963,90.0439741 C25.7751712,89.9364341 25.8003357,89.8007508 25.8025954,89.6372325 C25.7711654,89.6282965 25.7213498,89.6148412 25.653046,89.5968665 C25.5846395,89.5788918 25.5039074,89.5576303 25.4109526,89.5329793 C25.3179978,89.5083283 25.2170314,89.4814176 25.1084643,89.45235 C24.9996917,89.4232823 24.8893785,89.3934957 24.7773191,89.3632982 C24.6652598,89.332998 24.5548438,89.3038277 24.4462767,89.2758899 C24.3375041,89.2479521 24.2372567,89.2225821 24.1454317,89.2002935 C24.087091,89.0522847 24.0440545,88.9083845 24.0159112,88.7682846 C23.9879734,88.6281848 23.9740045,88.4909609 23.9740045,88.3565102 C23.9740045,88.1010642 24.0210469,87.859587 24.1151315,87.6320788 C24.2092162,87.4046733 24.3437696,87.2063355 24.5185863,87.0370652 C24.6933003,86.8680004 24.9067369,86.7340633 25.1588961,86.6353566 C25.4109526,86.5368553 25.6950554,86.4875533 26.0109991,86.4875533 C26.1230585,86.4875533 26.2346043,86.4963866 26.3455338,86.5143612 C26.4564633,86.5323359 26.5823888,86.5603765 26.7236185,86.5984828 L26.511928,87.4051869 C26.406545,87.3737568 26.3146173,87.350852 26.2362477,87.3362668 C26.1577753,87.3217843 26.077146,87.314389 25.994257,87.314389 C25.8261166,87.314389 25.6698909,87.3385265 25.5252716,87.3866986 C25.3807551,87.4348708 25.2552404,87.5049207 25.1487276,87.5967457 C25.0423174,87.6886734 24.9582986,87.8007328 24.8966711,87.9329238 C24.8350435,88.0652175 24.8042298,88.2152805 24.8042298,88.3834209 L24.8042298,88.4254303 C24.8042298,88.4400155 24.8053596,88.4539844 24.8076193,88.4674397 L25.9874779,88.769928 C26.202558,88.8237494 26.3583728,88.9150608 26.4547172,89.0438623 C26.5510615,89.1727665 26.5993364,89.3324845 26.5993364,89.5229135 C26.5993364,89.8343378 26.563387,90.1028283 26.4917964,90.3279742 C26.4198976,90.5533254 26.3051678,90.7392351 26.1471959,90.8860113 C25.9891213,91.0326847 25.7841072,91.1414573 25.5320507,91.2121235 C25.2798914,91.282687 24.9733973,91.3180201 24.612671,91.3180201 L23.9033383,91.3180201 C23.7195856,91.3180201 23.5436391,91.2966559 23.3756014,91.2541329 C23.2075638,91.2115072 23.0495919,91.1503933 22.9016859,91.0709965 C22.7536772,90.9912916 22.6180967,90.8949472 22.4949443,90.7817581 C22.3715866,90.6686716 22.2630195,90.5403836 22.1688321,90.3968943 C21.9469731,90.0383249 21.8359409,89.618128 21.8359409,89.1364063 C21.8359409,88.9883976 21.8461094,88.8416214 21.8662411,88.695975 C21.8864754,88.5504314 21.918419,88.4006766 21.9620718,88.2472241 C22.0058274,88.0937716 22.0612921,87.9329238 22.1284661,87.7648861 C22.1956401,87.5967457 22.2764748,87.4152527 22.3705595,87.2203044 L23.1167659,87.5800036 C23.0382935,87.7458843 22.9716331,87.8976934 22.9167846,88.0355336 C22.8618334,88.1733738 22.815921,88.3033051 22.7789444,88.4254303 C22.7419679,88.5475555 22.7150573,88.665264 22.6982124,88.7783505 C22.6814703,88.8915397 22.6730478,89.0052424 22.6730478,89.1195614 C22.6730478,89.4445438 22.7447412,89.7201215 22.8882306,89.9464999 C22.9912512,90.1167972 23.1319674,90.2473448 23.3100709,90.3381427 C23.4881744,90.4289406 23.6858959,90.4742368 23.9033383,90.4742368 L24.612671,90.4742368 C24.8165553,90.4742368 24.9930154,90.461295 25.1420512,90.4356169 Z M30.5959419,87.7245612 C30.5959419,87.8074502 30.6088837,87.8807869 30.6346645,87.9447768 C30.6603427,88.0085613 30.6996816,88.0674155 30.7522704,88.1211342 C30.8048592,88.1749555 30.8699789,88.2271335 30.9473214,88.2774626 C31.0245612,88.3278945 31.1147428,88.3812023 31.2178662,88.4370779 C31.2872999,88.4034909 31.3545765,88.3654873 31.4195936,88.3228616 C31.4845079,88.2803386 31.5411025,88.23268 31.5892746,88.1800912 C31.6375495,88.1273996 31.6761694,88.0685454 31.7053398,88.0035284 C31.7344074,87.9385113 31.7489926,87.8669207 31.7489926,87.7883456 C31.7489926,87.694261 31.7287582,87.611372 31.6884949,87.5395759 C31.6481289,87.4679853 31.5988269,87.4085148 31.5404862,87.3614724 C31.4822482,87.3144301 31.4200044,87.2797133 31.354063,87.2572192 C31.2878134,87.2348279 31.2290619,87.2236322 31.1775002,87.2236322 C31.1012875,87.2236322 31.0279508,87.2370876 30.9573873,87.2639983 C30.886721,87.2908062 30.82458,87.3273719 30.7707586,87.3732844 C30.71704,87.4191969 30.6744143,87.4724019 30.643087,87.5328996 C30.6115542,87.5935 30.5959419,87.6572845 30.5959419,87.7245612 Z M36.2165453,89.2573297 C36.2030899,89.5666998 36.1459818,89.8450507 36.0451181,90.0926906 C35.9442544,90.3403305 35.8052844,90.5509938 35.628208,90.7246807 C35.4512343,90.8983676 35.2371815,91.032202 34.9861521,91.1262866 C34.7352254,91.220474 34.4517389,91.2675163 34.1357952,91.2675163 L33.7189878,91.2675163 L33.7189878,90.4305121 L34.1357952,90.4305121 C34.3508752,90.4305121 34.5368875,90.4081207 34.6938323,90.3633381 C34.8505716,90.3184527 34.9794758,90.2467594 35.0803395,90.1481554 C35.1812031,90.0495514 35.2561833,89.9212634 35.305588,89.7632916 C35.3547873,89.6053197 35.379541,89.4131446 35.379541,89.1867662 L35.379541,87.1396031 L36.2165453,87.1396031 L36.2165453,89.2573297 Z M46.5327334,87.3447098 C46.3423044,87.3447098 46.1910088,87.4040776 46.0789495,87.5228132 C45.9668901,87.6416516 45.9109118,87.8265342 45.9109118,88.0774608 C45.9109118,88.1761675 45.9305299,88.2601864 45.9697661,88.32962 C46.0088995,88.3991564 46.0593314,88.4556483 46.1209589,88.4993011 C46.1825864,88.5430566 46.2515065,88.5750002 46.3277192,88.5951319 C46.4038292,88.6152635 46.4800418,88.6254321 46.5562545,88.6254321 L47.0740283,88.6254321 L47.0740283,88.1682587 C47.0740283,88.0404843 47.0638598,87.9313009 47.0437281,87.8405031 C47.0234938,87.7497052 46.9970966,87.6741088 46.9647422,87.6136111 C46.932285,87.5530107 46.8952058,87.5049413 46.8538127,87.4690946 C46.8123168,87.4332479 46.7719508,87.4063373 46.7327146,87.3883626 C46.6934784,87.3704906 46.6559884,87.3586787 46.6202444,87.3530295 C46.584295,87.347483 46.5552274,87.3447098 46.5327334,87.3447098 Z M45.4234382,90.4305018 C45.6026716,90.4305018 45.7623895,90.424339 45.9024894,90.4120135 C46.0425892,90.399688 46.1668714,90.3817134 46.2756439,90.3582949 C46.3843138,90.334671 46.4794256,90.3044735 46.5612874,90.267497 C46.6431493,90.2305205 46.7143291,90.1862514 46.774724,90.1346898 C46.8689114,90.0584771 46.9400912,89.9700416 46.9882634,89.8691779 C47.0364355,89.7683142 47.0649896,89.632631 47.0740283,89.4624364 L46.5562545,89.4624364 C46.4442979,89.4624364 46.3298761,89.4533977 46.2135029,89.4355257 C46.0969242,89.4176537 45.9848648,89.3868399 45.8772221,89.3430844 C45.7696821,89.2993289 45.6683048,89.2427343 45.5730903,89.1734033 C45.4777731,89.103867 45.3948841,89.0182047 45.3243206,88.9162112 C45.2537571,88.8142177 45.1976761,88.6938386 45.156283,88.5547659 C45.1146844,88.4158986 45.0940392,88.2567969 45.0940392,88.0774608 C45.0940392,87.9228785 45.1074945,87.7856546 45.1344052,87.6656864 C45.1612132,87.5458209 45.1954164,87.440027 45.2369123,87.3479966 C45.2783054,87.2561716 45.3248342,87.1760558 45.3763959,87.1076493 C45.4279576,87.0393454 45.4772596,86.9793613 45.5244046,86.9277997 C45.6587526,86.7934517 45.811178,86.6897121 45.9814753,86.6168889 C46.1517727,86.5440657 46.3355253,86.5077055 46.5327334,86.5077055 C46.7769837,86.5077055 46.9860037,86.5497149 47.1596905,86.6337337 C47.3333774,86.7177526 47.475737,86.833715 47.5866665,86.981621 C47.697596,87.129527 47.7787389,87.3048573 47.8303005,87.5077145 C47.8818622,87.7105717 47.9076431,87.9306846 47.9076431,88.1682587 L47.9076431,89.3615727 C47.9076431,89.695491 47.8572112,89.9761016 47.7563475,90.2036099 C47.6555866,90.4311181 47.5020314,90.62658 47.2958873,90.790201 C47.192764,90.8709331 47.0807046,90.940983 46.9597093,91.0003508 C46.8387139,91.0596159 46.7030307,91.1095342 46.5529677,91.1499002 C46.4026993,91.1901635 46.2352779,91.2199502 46.0503954,91.238952 C45.8655129,91.2580565 45.6565956,91.2675061 45.4234382,91.2675061 L45.4234382,90.4305018 Z M53.6254125,90.6289013 L54.2305946,90.0170428 L54.8490266,90.6355776 L54.2372709,91.2473333 L53.6254125,90.6289013 Z" id="Fill-45" fill="#232F7A"></path>
                </g>
            </g>
        </g>
    </g>
</svg>