<svg xmlns="http://www.w3.org/2000/svg" width="48" height="48" viewBox="0 0 48 48">
    <defs>
        <linearGradient id="8kh6jtudja" x1="50%" x2="50%" y1="0%" y2="100%">
            <stop offset="0%" stop-color="#FFF"/>
            <stop offset="1.72%" stop-color="#FFF"/>
            <stop offset="100%" stop-color="#E7E8E9"/>
        </linearGradient>
    </defs>
    <g fill="none" fill-rule="evenodd">
        <g>
            <g>
                <g>
                    <g transform="translate(-1596.000000, -1163.000000) translate(0.000000, 861.000000) translate(260.000000, 286.000000) translate(1336.000000, 16.000000)">
                        <rect width="48" height="48" fill="url(#8kh6jtudja)" rx="12"/>
                        <g>
                            <path fill="#131B1F" d="M10.713 8.462L6.877 4.653 3.04 8.462 1.719 6.813 6.877 1.692 12.034 6.813zM21.288 0L21.288 4.036 17.192 4.036 17.192 6.118 21.288 6.118 21.288 10.154 23.41 10.154 23.41 6.118 27.507 6.118 27.507 4.036 23.41 4.036 23.41 0z" transform="translate(10.000000, 13.000000)"/>
                            <path fill="#FFA41B" d="M14.105 22c-1.616 0-3.258-.235-4.881-.698-4.182-1.193-6.989-3.521-7.295-3.783L0 15.87l1.776-2.33 1.928 1.65c.103.087 2.57 2.17 6.255 3.221 1.383.395 2.778.595 4.146.595 3.475 0 6.738-1.284 9.697-3.817l1.928-1.65 1.777 2.33-1.928 1.65C22.104 20.492 18.243 22 14.105 22" transform="translate(10.000000, 13.000000)"/>
                        </g>
                    </g>
                </g>
            </g>
        </g>
    </g>
</svg>
